<svg width="38" height="38" viewBox="0 0 38 38" fill="none" xmlns="http://www.w3.org/2000/svg">
<rect width="38" height="38" rx="19" fill="#99BC3C" fill-opacity="0.4"/>
<g id="Vector">
<path d="M11.9096 25.0003C12.2109 25.0003 12.4551 24.7561 12.4551 24.4548C12.4551 24.1536 12.2109 23.9094 11.9096 23.9094C11.6084 23.9094 11.3642 24.1536 11.3642 24.4548C11.3642 24.7561 11.6084 25.0003 11.9096 25.0003Z" fill="#1B542C"/>
<path d="M25.5455 24.9997C25.8467 24.9997 26.0909 24.7555 26.0909 24.4543C26.0909 24.153 25.8467 23.9088 25.5455 23.9088C25.2442 23.9088 25 24.153 25 24.4543C25 24.7555 25.2442 24.9997 25.5455 24.9997Z" fill="#1B542C"/>
<path d="M20.6375 23.9094H15.1327C14.872 22.3641 13.528 21.1821 11.9097 21.1821C10.1053 21.1821 8.63748 22.6499 8.63748 24.4543C8.63748 26.2587 10.1053 27.7265 11.9097 27.7265C13.5275 27.7265 14.8715 26.545 15.1327 25.0003H20.6375C20.9386 25.0003 21.1829 24.7565 21.1829 24.4548C21.1829 24.1532 20.9386 23.9094 20.6375 23.9094ZM11.9097 26.6356C10.7069 26.6356 9.72838 25.657 9.72838 24.4543C9.72838 23.2516 10.7069 22.273 11.9097 22.273C13.1124 22.273 14.0909 23.2516 14.0909 24.4543C14.0909 25.657 13.1124 26.6356 11.9097 26.6356Z" fill="#1B542C"/>
<path d="M30.3455 18.7826L28.7364 17.575L27.154 12.8274C27.0793 12.6043 26.8715 12.4543 26.6364 12.4543H22.8182C22.5793 12.4543 22.3687 12.6092 22.2973 12.8372L19.8389 20.7032C19.7287 21.0561 19.3365 21.2601 18.9836 21.1499L9.382 18.1172C9.20255 18.0605 9.06291 17.9121 9.01709 17.7299L8.10345 14.0748C8.09527 14.0405 8.09091 14.0061 8.09091 13.9712C8.09091 13.7366 8.28182 13.5452 8.51691 13.5452H18.868C19.4505 13.5452 19.9987 13.3183 20.4105 12.9059L21.6335 11.683C21.8402 11.4768 22.114 11.3634 22.4053 11.3634H23.3636C23.6647 11.3634 23.9091 11.1196 23.9091 10.8179C23.9091 10.5163 23.6647 10.2725 23.3636 10.2725H22.4053C21.8227 10.2725 21.2751 10.4994 20.8622 10.9117L19.6393 12.1346C19.4358 12.3376 19.1549 12.4543 18.868 12.4543H8.51691C7.68073 12.4543 7 13.135 7 13.9712C7 14.0945 7.01527 14.2172 7.04527 14.3388L7.95891 17.995C8.09636 18.5432 8.51582 18.9883 9.05364 19.1579L18.6547 22.1901C18.8282 22.2446 19.0076 22.2725 19.1893 22.2725C19.9682 22.2725 20.6478 21.7728 20.8807 21.0288L23.2191 13.5452H26.2431L27.5156 17.3639H26.4275L26.5785 17.0623C26.7133 16.7928 26.6042 16.465 26.3347 16.3303C26.0647 16.1961 25.7375 16.3046 25.6027 16.5741L25.2084 17.3634H23.3636C23.0625 17.3634 22.8182 17.6072 22.8182 17.9088C22.8182 18.2099 23.0625 18.4543 23.3636 18.4543L28.0916 18.4548L29.6915 19.6554C29.8278 19.7574 29.9091 19.9205 29.9091 20.0912V23.3634C29.9091 23.6645 29.6642 23.9088 29.3636 23.9088H28.7691C28.5084 22.3636 27.1644 21.1816 25.5455 21.1816C23.7405 21.1816 22.2727 22.6494 22.2727 24.4543C22.2727 26.2592 23.7405 27.727 25.5455 27.727C27.1638 27.727 28.5078 26.545 28.7691 24.9997H29.3636C30.2658 24.9997 31 24.2656 31 23.3634V20.0912C31 19.5785 30.7551 19.0892 30.3455 18.7826ZM25.5455 26.6361C24.3422 26.6361 23.3636 25.6576 23.3636 24.4543C23.3636 23.251 24.3422 22.2725 25.5455 22.2725C26.7487 22.2725 27.7273 23.251 27.7273 24.4543C27.7273 25.6576 26.7487 26.6361 25.5455 26.6361Z" fill="#1B542C"/>
<path d="M10.8182 15.1816V16.8179C10.8182 17.1196 11.0625 17.3634 11.3636 17.3634C11.6647 17.3634 11.9091 17.1196 11.9091 16.8179V15.1816C11.9091 14.8799 11.6647 14.6361 11.3636 14.6361C11.0625 14.6361 10.8182 14.8799 10.8182 15.1816ZM13 15.1816V17.3634C13 17.665 13.2444 17.9088 13.5455 17.9088C13.8465 17.9088 14.0909 17.665 14.0909 17.3634V15.1816C14.0909 14.8799 13.8465 14.6361 13.5455 14.6361C13.2444 14.6361 13 14.8799 13 15.1816ZM15.1818 15.1816V17.9088C15.1818 18.2105 15.4262 18.4543 15.7273 18.4543C16.0284 18.4543 16.2727 18.2105 16.2727 17.9088V15.1816C16.2727 14.8799 16.0284 14.6361 15.7273 14.6361C15.4262 14.6361 15.1818 14.8799 15.1818 15.1816ZM17.3636 15.1816V18.4543C17.3636 18.7559 17.608 18.9997 17.9091 18.9997C18.2102 18.9997 18.4545 18.7559 18.4545 18.4543V15.1816C18.4545 14.8799 18.2102 14.6361 17.9091 14.6361C17.608 14.6361 17.3636 14.8799 17.3636 15.1816Z" fill="#1B542C"/>
</g>
</svg>
