<svg width="32" height="32" viewBox="0 0 32 32" fill="none" xmlns="http://www.w3.org/2000/svg">
<g id="Deskto - 1441">
<g id="Frame 1597882051">
<g id="Frame 1597882046">
<g id="Frame 1597882043">
<g id="Layer_1" clip-path="url(#clip0_2_16410)">
<path id="Vector" d="M31.6351 27.8291C32.1213 28.318 32.1213 29.1124 31.6351 29.5937C31.1489 30.0826 30.3588 30.0826 29.8649 29.5937C27.6389 27.3707 24.0226 27.3707 21.7966 29.5937C18.5905 32.8021 13.4015 32.8021 10.1954 29.5937C7.9694 27.3707 4.35306 27.3707 2.12704 29.5937C1.64081 30.0826 0.850687 30.0826 0.35686 29.5937C-0.12937 29.1048 -0.12937 28.3103 0.35686 27.8291C3.55534 24.6283 8.75952 24.6283 11.958 27.8291C14.184 30.0597 17.7928 30.0597 20.0264 27.8291C23.2249 24.6283 28.429 24.6283 31.6275 27.8291M19.6693 14.751H12.3379V9.8773H19.6693V14.751ZM12.3379 21.2137V17.2566H19.6693V21.2137C17.5876 22.9706 14.4803 23.0241 12.3379 21.2137ZM2.13464 22.6422C4.36066 20.4192 7.97699 20.4192 10.203 22.6422C13.4091 25.8506 18.5981 25.8506 21.8042 22.6422C24.0302 20.4192 27.6465 20.4192 29.8725 22.6422C30.3588 23.1311 31.1489 23.1311 31.6427 22.6422C32.1289 22.1533 32.1289 21.3664 31.6427 20.8775C29.0824 18.3185 25.2457 17.8066 22.1764 19.3421V3.70494C22.1764 3.04034 22.7158 2.49797 23.3844 2.49797C24.053 2.49797 24.5924 3.04034 24.5924 3.70494C24.5924 4.36954 25.1546 4.95775 25.8459 4.95775C26.5373 4.95775 27.0995 4.4001 27.0995 3.70494C27.0995 1.65767 25.4357 0 23.392 0C21.3483 0 19.6845 1.66531 19.6845 3.70494V7.37169H12.3531V3.70494C12.3531 3.04034 12.8925 2.49797 13.561 2.49797C14.2296 2.49797 14.769 3.04034 14.769 3.70494C14.769 4.36954 15.3312 4.95775 16.0226 4.95775C16.7139 4.95775 17.2685 4.4001 17.2685 3.70494C17.2685 1.65767 15.6047 0 13.561 0C11.5174 0 9.85354 1.66531 9.85354 3.70494V19.3344C6.78421 17.8066 2.93996 18.3185 0.387249 20.8699C-0.0989806 21.3588 -0.0989806 22.1456 0.387249 22.6345C0.873479 23.1234 1.6636 23.1234 2.15743 22.6345" fill="white"/>
</g>
</g>
</g>
</g>
</g>
<defs>
<clipPath id="clip0_2_16410">
<rect width="32" height="32" fill="white"/>
</clipPath>
</defs>
</svg>
